<svg width="1584" height="396" viewBox="0 0 1584 396" xmlns="http://www.w3.org/2000/svg">
  <defs>
    <linearGradient id="bg" x1="0" y1="0" x2="1" y2="1">
      <stop offset="0%" stop-color="#030712"/>
      <stop offset="100%" stop-color="#0d0f1f"/>
    </linearGradient>
    <radialGradient id="glow-r" cx="85%" cy="45%" r="45%">
      <stop offset="0%" stop-color="#6366f1" stop-opacity="0.22"/>
      <stop offset="100%" stop-color="#6366f1" stop-opacity="0"/>
    </radialGradient>
    <radialGradient id="glow-l" cx="15%" cy="30%" r="35%">
      <stop offset="0%" stop-color="#a855f7" stop-opacity="0.1"/>
      <stop offset="100%" stop-color="#a855f7" stop-opacity="0"/>
    </radialGradient>
    <linearGradient id="logo-grad" x1="0" y1="0" x2="337" y2="555" gradientUnits="userSpaceOnUse">
      <stop offset="0%" stop-color="#6366f1"/>
      <stop offset="48%" stop-color="#22d3ee"/>
      <stop offset="100%" stop-color="#a855f7"/>
    </linearGradient>
    <linearGradient id="text-grad" x1="0" y1="0" x2="1" y2="0">
      <stop offset="0%" stop-color="#6366f1"/>
      <stop offset="100%" stop-color="#a855f7"/>
    </linearGradient>
    <linearGradient id="accent-line" x1="0" y1="0" x2="1" y2="0">
      <stop offset="0%" stop-color="#6366f1" stop-opacity="0.7"/>
      <stop offset="100%" stop-color="#a855f7" stop-opacity="0.7"/>
    </linearGradient>
  </defs>

  <!-- Background -->
  <rect width="1584" height="396" fill="url(#bg)"/>
  <rect width="1584" height="396" fill="url(#glow-r)"/>
  <rect width="1584" height="396" fill="url(#glow-l)"/>

  <!-- Subtle dot grid (right half only, safe zone) -->
  <pattern id="dots" x="0" y="0" width="28" height="28" patternUnits="userSpaceOnUse">
    <circle cx="1" cy="1" r="1" fill="rgba(255,255,255,0.04)"/>
  </pattern>
  <rect x="700" y="0" width="884" height="396" fill="url(#dots)"/>

  <!-- Top accent bar -->
  <rect x="0" y="0" width="1584" height="2" fill="url(#accent-line)"/>

  <!-- Vertical divider between left and right -->
  <line x1="700" y1="40" x2="700" y2="356" stroke="rgba(255,255,255,0.06)" stroke-width="1"/>

  <!-- ═══════════ TOP LEFT: Logo + name (safe zone y < 200) ═══════════ -->
  <!-- Logo mark scaled to 52px tall: scale = 52/555 = 0.0937, width = 337*0.0937 ≈ 32px -->
  <g transform="translate(52, 38) scale(0.0937)">
    <path d="M336.43 0C331.565 13.7255 325.71 26.9815 320.325 40.5105L291 114.126C271.59 162.354 252.72 212.039 232.685 259.822C208.98 257.893 177.76 265.064 157.315 276.896C141.012 286.331 137.408 292.086 125.311 303.849C103.831 324.733 89.9641 340.976 81.9786 371.132C72.6896 406.287 76.3066 446.387 94.9946 477.952C105.738 496.097 124.617 512.337 139.637 527.302C149.738 537.367 171.96 548.472 186.275 552.157L186.34 554.112C147.872 547.787 129.936 533.292 102.992 507.482L68.1636 473.847C56.7396 462.857 38.6242 446.937 28.5157 435.702C8.51015 413.162 -1.67286 383.57 0.224638 353.491C1.45614 330.686 9.39964 308.753 23.0566 290.448C31.8246 278.772 49.4141 263.961 60.7766 253.63L115.831 203.133L232.335 95.9955C266.34 64.463 301.825 30.633 336.43 0Z" fill="url(#logo-grad)"/>
    <path d="M286.424 322.545C290.604 322.309 293.349 322.365 297.479 323.347C306.039 325.411 313.399 330.848 317.884 338.421C322.489 346.111 323.869 355.312 321.714 364.013C319.514 372.496 314.069 379.773 306.549 384.277C289.584 394.367 270.204 388.272 260.419 371.477C246.079 372.505 224.584 371.848 209.884 371.781C198.969 383.877 183.994 398.612 172.284 410.332C184.339 422.207 196.254 434.227 208.019 446.392C226.039 446.307 244.059 446.317 262.079 446.427C264.374 440.542 267.244 436.017 272.199 432.032C279.349 426.277 288.524 423.662 297.629 424.782C307.954 426.037 314.924 431.002 321.109 439.017C326.034 446.577 327.819 455.757 326.084 464.607C324.489 473.272 319.419 480.912 312.059 485.752C304.414 490.782 295.084 492.567 286.124 490.712C276.634 488.732 269.989 483.457 264.734 475.522C247.039 475.822 229.224 475.367 211.539 475.542C197.554 475.682 195.629 475.037 186.029 464.882C178.744 457.177 170.464 449.692 162.92 442.157C150.603 431.182 153.295 399.117 157.59 385.266C158.983 380.771 194.344 345.129 198.864 344.278C217.259 340.815 240.469 341.954 259.224 342.385C265.294 330.215 272.959 324.624 286.424 322.545Z" fill="url(#logo-grad)"/>
    <path d="M286.764 342.734C294.024 341.13 301.204 345.753 302.749 353.03C304.294 360.307 299.614 367.449 292.324 368.935C285.119 370.403 278.079 365.787 276.549 358.593C275.024 351.4 279.579 344.321 286.764 342.734Z" fill="white"/>
    <path d="M289.724 445.282C296.804 443.217 304.219 447.272 306.309 454.342C308.399 461.417 304.379 468.847 297.314 470.967C290.209 473.097 282.729 469.047 280.624 461.932C278.524 454.822 282.604 447.357 289.724 445.282Z" fill="white"/>
  </g>

  <!-- Company name next to logo -->
  <text x="94" y="58" font-family="-apple-system,BlinkMacSystemFont,system-ui,sans-serif" font-size="17" font-weight="700" letter-spacing="-0.02em" fill="rgba(255,255,255,0.9)">CreativeComplete</text>
  <text x="94" y="78" font-family="ui-monospace,monospace" font-size="10" letter-spacing="0.14em" fill="rgba(99,102,241,0.75)">AI CUSTOMER SYSTEM AGENCY</text>

  <!-- ═══════════ RIGHT SIDE: Main content ═══════════ -->

  <!-- Eyebrow -->
  <text x="748" y="76" font-family="ui-monospace,monospace" font-size="11" letter-spacing="0.2em" fill="rgba(99,102,241,0.7)" font-weight="600">CEO &amp; BUSINESS MECHANIC</text>

  <!-- Main headline -->
  <text x="748" y="140" font-family="-apple-system,BlinkMacSystemFont,system-ui,sans-serif" font-size="52" font-weight="800" letter-spacing="-0.035em" fill="rgba(255,255,255,0.95)">Your leads are losing.</text>
  <text x="748" y="198" font-family="-apple-system,BlinkMacSystemFont,system-ui,sans-serif" font-size="52" font-weight="800" letter-spacing="-0.035em">
    <tspan fill="url(#text-grad)">I fix the system.</tspan>
  </text>

  <!-- Divider under headline -->
  <rect x="748" y="218" width="440" height="1.5" fill="url(#accent-line)" opacity="0.4"/>

  <!-- Stat pills row -->
  <!-- Pill 1 -->
  <rect x="748" y="238" width="148" height="46" rx="10" fill="rgba(99,102,241,0.09)" stroke="rgba(99,102,241,0.22)" stroke-width="1"/>
  <text x="822" y="258" text-anchor="middle" font-family="-apple-system,BlinkMacSystemFont,system-ui,sans-serif" font-size="20" font-weight="800" letter-spacing="-0.03em" fill="url(#text-grad)">42.5×</text>
  <text x="822" y="275" text-anchor="middle" font-family="-apple-system,BlinkMacSystemFont,system-ui,sans-serif" font-size="10" fill="rgba(255,255,255,0.3)">Broadcast ROI</text>

  <!-- Pill 2 -->
  <rect x="906" y="238" width="148" height="46" rx="10" fill="rgba(99,102,241,0.09)" stroke="rgba(99,102,241,0.22)" stroke-width="1"/>
  <text x="980" y="258" text-anchor="middle" font-family="-apple-system,BlinkMacSystemFont,system-ui,sans-serif" font-size="20" font-weight="800" letter-spacing="-0.03em" fill="url(#text-grad)">200%</text>
  <text x="980" y="275" text-anchor="middle" font-family="-apple-system,BlinkMacSystemFont,system-ui,sans-serif" font-size="10" fill="rgba(255,255,255,0.3)">More customers</text>

  <!-- Pill 3 -->
  <rect x="1064" y="238" width="148" height="46" rx="10" fill="rgba(99,102,241,0.09)" stroke="rgba(99,102,241,0.22)" stroke-width="1"/>
  <text x="1138" y="258" text-anchor="middle" font-family="-apple-system,BlinkMacSystemFont,system-ui,sans-serif" font-size="20" font-weight="800" letter-spacing="-0.03em" fill="url(#text-grad)">10 days</text>
  <text x="1138" y="275" text-anchor="middle" font-family="-apple-system,BlinkMacSystemFont,system-ui,sans-serif" font-size="10" fill="rgba(255,255,255,0.3)">To go live</text>

  <!-- Tagline -->
  <text x="748" y="326" font-family="-apple-system,BlinkMacSystemFont,system-ui,sans-serif" font-size="15" fill="rgba(255,255,255,0.38)" letter-spacing="-0.01em">Qualify leads in 60 s · 81% conversion rate · Zero extra headcount</text>

  <!-- URL bottom right -->
  <text x="1532" y="372" text-anchor="end" font-family="ui-monospace,monospace" font-size="11" fill="rgba(255,255,255,0.18)" letter-spacing="0.06em">creativecomplete.co</text>
</svg>
